<svg width="158" height="158" fill="none" xmlns="http://www.w3.org/2000/svg"><g filter="url(#filter0_dd)"><path d="M89.259 63.394a.967.967 0 00-1.367 0L77.504 73.781a3.028 3.028 0 00-2.466 0l-4.918-4.919a.967.967 0 00-1.367 1.367l4.909 4.91a2.895 2.895 0 004.66 3.294 2.868 2.868 0 00.558-3.294l10.38-10.378a.967.967 0 000-1.367zm-12.304 13.67a.989.989 0 01-1.367 0 .967.967 0 111.367 0zm19.549 21.934h-6.316V105h-2.094v-6.002h-3.501V97.14h3.501v-2.638h-3.501V92.66h3.501V79.222h8.513c2.632 0 4.686.69 6.162 2.072 1.487 1.369 2.231 3.234 2.231 5.594 0 2.408-.721 4.279-2.162 5.613-1.442 1.322-3.502 1.988-6.18 2h-6.47v2.638h6.316V99zm-6.316-6.338h6.42c1.99 0 3.535-.496 4.633-1.487 1.099-1.004 1.648-2.42 1.648-4.25 0-1.77-.538-3.174-1.613-4.213-1.064-1.039-2.535-1.582-4.411-1.629h-6.677V92.66z" fill="#fff"/><path fill-rule="evenodd" clip-rule="evenodd" d="M77.074 102.979A27.33 27.33 0 0176 103c-14.912 0-27-12.088-27-27s12.088-27 27-27c13.821 0 25.217 10.385 26.81 23.778h2.013C103.22 58.278 90.927 47 76 47c-16.016 0-29 12.984-29 29s12.984 29 29 29c.36 0 .718-.007 1.074-.02v-2.001z" fill="#fff"/><path d="M76 48.074v5.37M49.148 76h5.37" stroke="#fff" stroke-width="2" stroke-linecap="round"/></g><defs><filter id="filter0_dd" x="0" y="0" width="158" height="158" filterUnits="userSpaceOnUse" color-interpolation-filters="sRGB"><feFlood flood-opacity="0" result="BackgroundImageFix"/><feColorMatrix in="SourceAlpha" values="0 0 0 0 0 0 0 0 0 0 0 0 0 0 0 0 0 0 127 0" result="hardAlpha"/><feOffset dx="3" dy="3"/><feGaussianBlur stdDeviation="25"/><feComposite in2="hardAlpha" operator="out"/><feColorMatrix values="0 0 0 0 1 0 0 0 0 1 0 0 0 0 1 0 0 0 0.5 0"/><feBlend in2="BackgroundImageFix" result="effect1_dropShadow"/><feColorMatrix in="SourceAlpha" values="0 0 0 0 0 0 0 0 0 0 0 0 0 0 0 0 0 0 127 0" result="hardAlpha"/><feOffset dx="-1" dy="-1"/><feGaussianBlur stdDeviation="15"/><feComposite in2="hardAlpha" operator="out"/><feColorMatrix values="0 0 0 0 0.705833 0 0 0 0 1 0 0 0 0 1 0 0 0 0.38 0"/><feBlend in2="effect1_dropShadow" result="effect2_dropShadow"/><feBlend in="SourceGraphic" in2="effect2_dropShadow" result="shape"/></filter></defs></svg>