<svg width="146" height="158" fill="none" xmlns="http://www.w3.org/2000/svg"><g filter="url(#filter0_dd)" fill="#fff"><path d="M83.484 86.29a9.354 9.354 0 109.355 9.355 9.365 9.365 0 00-9.355-9.355zm0 17.009a7.654 7.654 0 117.654-7.654 7.664 7.664 0 01-7.654 7.654z"/><path d="M87.135 91.642l-6.07 6.07-1.126-1.688a.85.85 0 10-1.415.944l1.701 2.55a.85.85 0 001.31.13l6.803-6.803a.85.85 0 10-1.203-1.203zM80.162 69.05H54.734a.848.848 0 000 1.695h25.428a.848.848 0 000-1.695zm0-6.78H54.734a.848.848 0 000 1.694h25.428a.848.848 0 000-1.695zm0 13.56H54.734a.848.848 0 000 1.696h25.428a.848.848 0 000-1.695zm-7.119 6.719H54.396a.848.848 0 000 1.695h18.647a.848.848 0 000-1.695z"/><path fill-rule="evenodd" clip-rule="evenodd" d="M77.157 47.17c.1.072 10.303 10.276 10.372 10.374.017.023.032.033.045.044.16.134.125.502.113 26.412h-1.698V58.879h-9.324a.848.848 0 01-.847-.848v-9.323h-24.58a2.546 2.546 0 00-2.543 2.543v45.77a2.546 2.546 0 002.543 2.542H71v1.695H51.238A4.243 4.243 0 0147 97.02V51.25a4.243 4.243 0 014.238-4.237c25.233 0 25.66-.069 25.867.113.015.014.03.029.052.045zm.356 10.014h7.277l-7.277-7.278v7.278z"/></g><defs><filter id="filter0_dd" x="0" y="0" width="145.839" height="158" filterUnits="userSpaceOnUse" color-interpolation-filters="sRGB"><feFlood flood-opacity="0" result="BackgroundImageFix"/><feColorMatrix in="SourceAlpha" values="0 0 0 0 0 0 0 0 0 0 0 0 0 0 0 0 0 0 127 0" result="hardAlpha"/><feOffset dx="3" dy="3"/><feGaussianBlur stdDeviation="25"/><feComposite in2="hardAlpha" operator="out"/><feColorMatrix values="0 0 0 0 1 0 0 0 0 1 0 0 0 0 1 0 0 0 0.5 0"/><feBlend in2="BackgroundImageFix" result="effect1_dropShadow"/><feColorMatrix in="SourceAlpha" values="0 0 0 0 0 0 0 0 0 0 0 0 0 0 0 0 0 0 127 0" result="hardAlpha"/><feOffset dx="-1" dy="-1"/><feGaussianBlur stdDeviation="15"/><feComposite in2="hardAlpha" operator="out"/><feColorMatrix values="0 0 0 0 0.705833 0 0 0 0 1 0 0 0 0 1 0 0 0 0.38 0"/><feBlend in2="effect1_dropShadow" result="effect2_dropShadow"/><feBlend in="SourceGraphic" in2="effect2_dropShadow" result="shape"/></filter></defs></svg>