<svg width="158" height="158" fill="none" xmlns="http://www.w3.org/2000/svg"><g filter="url(#filter0_dd)" fill="#fff"><path d="M49.9 105h51.233a3.867 3.867 0 003.867-3.867V85.667a3.867 3.867 0 00-3.867-3.867h-11.6V53.767A6.774 6.774 0 0082.767 47H49.9a2.9 2.9 0 00-2.9 2.9v52.2a2.9 2.9 0 002.9 2.9zm22.233-11.6H56.667a.967.967 0 01-.967-.967V90.5c0-.534.433-.967.967-.967h15.466V93.4zm30.934-7.733v15.466a1.934 1.934 0 01-1.934 1.934H76a1.934 1.934 0 01-1.933-1.934V85.667c0-1.068.865-1.934 1.933-1.934h25.133c1.068 0 1.934.866 1.934 1.934zM48.933 49.9c0-.534.433-.967.967-.967h32.867a4.84 4.84 0 014.833 4.834V81.8H76a3.867 3.867 0 00-3.867 3.867V87.6H56.667a2.9 2.9 0 00-2.9 2.9v1.933a2.9 2.9 0 002.9 2.9h15.466v5.8a3.83 3.83 0 00.538 1.934H49.9a.967.967 0 01-.967-.967V49.9z"/><path d="M82.455 92.716a2.712 2.712 0 00.639-3.003A2.8 2.8 0 0080.5 88a2.8 2.8 0 00-2.594 1.713 2.712 2.712 0 00.639 3.003A3.419 3.419 0 0077 95.564v2.062c0 .759.627 1.374 1.4 1.374h4.2c.773 0 1.4-.615 1.4-1.374v-2.062c0-1.142-.58-2.21-1.545-2.848zM79.1 90.754c0-.759.627-1.374 1.4-1.374.773 0 1.4.615 1.4 1.374 0 .76-.627 1.375-1.4 1.375-.773 0-1.4-.616-1.4-1.375zm-.7 6.872v-2.062c0-1.138.94-2.061 2.1-2.061 1.16 0 2.1.923 2.1 2.061v2.062h-4.2zM99.6 90H88.967a.967.967 0 100 1.933H99.6a.967.967 0 100-1.933zm-5.8 5h-4.833a.967.967 0 100 1.933H93.8a.967.967 0 100-1.933zM79.198 64.667c-.056-.05-.112-.05-.168-.05.503-1.138.447-2.377-.224-3.417-.167-.247-.447-.742-1.23-.94-.167-.05-.279-.05-.447-.05-.39 0-.726.099-1.062.297-.167.1-.28.198-.335.248-.224.198-.447.346-.615.544-.447.347-.95.793-1.453 1.239l-.056-.05c-.447-.495-1.006-.792-1.677-.94.168-.248.28-.496.335-.694.448-1.239-.055-2.427-1.285-3.021l-.335-.149c0-.198 0-.396-.112-.594-.224-.545-.727-.892-1.398-1.04-.167-.05-.335-.05-.503-.05-.167 0-.335 0-.503.05h-.056c-.67.148-1.174.495-1.397.99-.112.198-.112.396-.112.644l-.335.149c-1.23.643-1.733 1.782-1.342 3.07.056.248.168.446.336.694a3.41 3.41 0 00-1.677.94s0 .05-.056.05c-.56-.446-1.062-.842-1.453-1.238-.224-.198-.448-.347-.671-.545a2.084 2.084 0 00-.336-.248c-.279-.198-.67-.297-1.062-.297-.167 0-.279 0-.447.05-.726.149-1.062.693-1.23.941a3.549 3.549 0 00-.223 3.417c-.056 0-.112.05-.168.05-.67.347-.95.941-.894 1.783 0 .248.056.495.168.693.167.496.503.941.894 1.288.112.1.223.198.335.248-.223.445-.223.94.056 1.386.056.1.168.248.224.347.168.198.391.397.615.595.503.346 1.118.544 1.732.644h.112c.112.247.28.445.503.594a2.9 2.9 0 001.286.545c0 .346.112.693.335.99.56.644 1.342 1.09 2.124 1.189.112.198.224.346.392.495C67.292 76.802 67.85 77 68.466 77c.614 0 1.173-.198 2.683-1.486a1.78 1.78 0 00.39-.495c.783-.149 1.566-.545 2.125-1.189.224-.297.391-.644.335-.99.447-.1.895-.248 1.286-.545a1.38 1.38 0 00.503-.594h.112c.615-.05 1.23-.298 1.732-.644.224-.149.448-.347.615-.595.112-.099.168-.247.224-.347.28-.495.28-.99.056-1.386.112-.1.223-.149.335-.248.392-.347.727-.792.895-1.288.055-.247.111-.445.167-.693.224-.892-.056-1.486-.726-1.833zm-10.956-7.181c.056-.05.168-.05.224-.1h.223c.056 0 .168.05.224.1.056.05.056.05.056.099l-.392.545-.335-.545c-.056-.05 0-.1 0-.1zm-1.174 1.535l.336-.148c.111-.05.167-.05.167-.05l.056.05.95 1.287.95-1.287.056-.05s.056 0 .168.05c.112.05.224.05.336.148.39.198.838.594.558 1.337-.111.298-.335.694-.726 1.14l-.056.05h-2.794l-.057-.05c-.391-.446-.615-.842-.726-1.14-.056-.742.39-1.139.782-1.337zm11.347 7.33c0 .1-.056.248-.056.347a2.03 2.03 0 01-.447.644 2.085 2.085 0 01-1.342.495c-.558.1-1.006.1-1.509.1h-.223c-.056 0-.168 0-.168.049-.056.099.056.248.112.297.223.149.559.248.782.396.503.198 1.062.397 1.51.644.055.05.111.05.055.1-.056.049-.056.098-.111.197-.112.1-.168.198-.28.297a1.96 1.96 0 01-.894.347h-.224c-.447 0-.894-.148-1.341-.347-.28-.099-.56-.247-.783-.346-.056-.05-.223-.149-.335-.149-.056 0-.056 0-.112.05a.279.279 0 00.056.346c.168.248.447.496.67.694.224.247.392.445.616.644-.28.198-.727.297-1.118.297h-.224a1.576 1.576 0 01-1.062-.594c-.112-.15-.168-.298-.28-.446-.111-.198-.335-.297-.558-.297-.112 0-.224.049-.336.099a6.963 6.963 0 00-.894.742c.391.298 1.733 1.486 2.571 1.982-.391.445-.838.644-1.285.644-.392 0-.839-.199-1.286-.545-.168-.149-.335-.297-.447-.297-.056 0-.056 0-.112.049-.112.1 0 .495.056.594.112.248.67.99.726 1.04 0 0-1.285 1.09-1.565 1.09s-1.565-1.09-1.565-1.09c.056-.099.615-.842.727-1.04.056-.099.168-.495.056-.594-.056-.05-.056-.05-.112-.05-.168 0-.28.15-.447.298-.447.346-.839.544-1.286.544-.447 0-.894-.247-1.285-.643.838-.545 2.18-1.684 2.57-1.981 0 0-.502-.446-.893-.743-.112-.05-.224-.1-.336-.1-.223 0-.447.1-.559.298-.112.148-.168.297-.28.446-.223.297-.614.544-1.005.544h-.224c-.391 0-.838-.099-1.118-.297.224-.198.447-.446.615-.644.223-.247.447-.446.67-.693.057-.1.112-.248.057-.347 0-.05-.056-.05-.112-.05-.112 0-.224.1-.336.15-.279.098-.559.247-.838.346-.447.198-.838.347-1.341.347h-.224a1.962 1.962 0 01-.894-.347c-.112-.1-.224-.198-.28-.297-.056-.05-.112-.1-.112-.198-.056-.05 0-.1.056-.1.447-.247 1.006-.445 1.51-.643.279-.1.558-.198.838-.396.112-.05.223-.199.112-.298h-.448c-.503 0-.95 0-1.453-.05a2.085 2.085 0 01-1.341-.495c-.224-.198-.392-.396-.447-.643-.056-.1-.056-.248-.112-.347 0-.1-.056-.347.056-.396h.056c.111 0 .223 0 .279.05.168 0 .28 0 .447.049.335 0 .67.05 1.006.099.336 0 .671.05 1.006.05h.056c.112 0 .168 0 .28-.1.112-.099.112-.198 0-.247-.503-.248-1.006-.446-1.454-.793-.95-.743-1.341-2.13-.67-3.12 0-.05.111-.248.167-.248l.056.05.168.148c.224.149.447.347.615.496 1.174.99 2.347 1.931 3.521 2.922l.224.198c-.503.396-.559 1.14-.224 1.634.224.347.671.496 1.118.496.168 0 .336 0 .503-.1 1.118-.346 1.174-1.832.112-2.228-.168-.05-.28-.1-.447-.1-.112 0-.224 0-.168-.098.112-.248.336-.496.503-.743-.223-.05-.447-.1-.726-.1h-.056c-.112 0-.224 0-.336.05a.448.448 0 00-.223.1c-.056.049-.112.098-.168.098-.168-.842.559-1.585 1.51-1.585h.167c.168 0 .391.05.559.05.28 0 .503.05.782.099h.224c.168 0 .391.05.559.05a1.655 1.655 0 00-.112 1.684c.112.247.28.495.391.742.112-.247.28-.495.392-.742.28-.545.28-1.19-.112-1.684.168 0 .391-.05.559-.05h.224c.279 0 .503-.05.782-.099.168 0 .391-.05.559-.05h.168c.95 0 1.677.743 1.509 1.585-.056 0-.112-.099-.168-.099-.056-.05-.168-.05-.223-.099-.112-.05-.224-.05-.336-.05h-.056c-.223 0-.503.05-.726.1.167.247.391.495.503.743.056.148 0 .099-.168.099s-.28.05-.447.099c-1.062.396-1.006 1.931.112 2.229.167.05.335.099.503.099.447 0 .838-.149 1.118-.496.335-.495.28-1.238-.224-1.634l.224-.198a183.17 183.17 0 013.521-2.922c.224-.149.447-.347.615-.496l.168-.148s0-.05.055-.05c.056 0 .168.198.168.248.67.99.28 2.377-.67 3.12-.448.347-.95.495-1.454.793-.112.05-.056.148 0 .247.056.05.168.1.28.1h.056c.335 0 .67-.05 1.006-.05.335-.05.67-.05 1.006-.1.167 0 .28 0 .447-.049.056 0 .224-.05.28-.05h.055c.224 0 .168.248.168.347z"/></g><defs><filter id="filter0_dd" x="0" y="0" width="158" height="158" filterUnits="userSpaceOnUse" color-interpolation-filters="sRGB"><feFlood flood-opacity="0" result="BackgroundImageFix"/><feColorMatrix in="SourceAlpha" values="0 0 0 0 0 0 0 0 0 0 0 0 0 0 0 0 0 0 127 0" result="hardAlpha"/><feOffset dx="3" dy="3"/><feGaussianBlur stdDeviation="25"/><feComposite in2="hardAlpha" operator="out"/><feColorMatrix values="0 0 0 0 1 0 0 0 0 1 0 0 0 0 1 0 0 0 0.5 0"/><feBlend in2="BackgroundImageFix" result="effect1_dropShadow"/><feColorMatrix in="SourceAlpha" values="0 0 0 0 0 0 0 0 0 0 0 0 0 0 0 0 0 0 127 0" result="hardAlpha"/><feOffset dx="-1" dy="-1"/><feGaussianBlur stdDeviation="15"/><feComposite in2="hardAlpha" operator="out"/><feColorMatrix values="0 0 0 0 0.705833 0 0 0 0 1 0 0 0 0 1 0 0 0 0.38 0"/><feBlend in2="effect1_dropShadow" result="effect2_dropShadow"/><feBlend in="SourceGraphic" in2="effect2_dropShadow" result="shape"/></filter></defs></svg>