<svg width="180" height="158" fill="none" xmlns="http://www.w3.org/2000/svg"><g filter="url(#filter0_dd)"><path d="M55.47 85.118h5.295" stroke="#fff" stroke-width="2" stroke-miterlimit="10" stroke-linecap="round" stroke-linejoin="round"/><path d="M48 61h71m-71 9h71" stroke="#fff" stroke-width="2"/><path fill-rule="evenodd" clip-rule="evenodd" d="M49.134 91.074a2 2 0 00.031-.36l-.164-40.556a1.412 1.412 0 011.358-.995L116.466 49c.932-.002 1.542.802 1.405 1.573-.022.12-.032.24-.031.36l.082 20.42h2l-.082-20.428c.366-2.05-1.251-3.93-3.379-3.925l-66.107.163c-1.651.004-3.07 1.18-3.354 2.78l.165 40.779c-.366 2.05 1.25 3.93 3.379 3.925l47.28-.117v-2l-47.285.117c-.932.002-1.543-.802-1.405-1.573z" fill="#fff"/><path d="M117.847 98.645h-6.687V105h-2.217v-6.355h-3.708v-1.968h3.708v-2.793h-3.708v-1.95h3.708V77.706h9.014c2.786 0 4.961.73 6.524 2.193 1.575 1.45 2.362 3.424 2.362 5.924 0 2.55-.763 4.53-2.29 5.942-1.526 1.4-3.707 2.106-6.542 2.119h-6.851v2.793h6.687v1.968zm-6.687-6.711h6.797c2.108 0 3.743-.525 4.906-1.575 1.163-1.062 1.745-2.562 1.745-4.499 0-1.874-.57-3.361-1.708-4.461-1.127-1.1-2.684-1.675-4.671-1.725h-7.069v12.26z" fill="#fff"/></g><defs><filter id="filter0_dd" x="0" y="0" width="179.843" height="158" filterUnits="userSpaceOnUse" color-interpolation-filters="sRGB"><feFlood flood-opacity="0" result="BackgroundImageFix"/><feColorMatrix in="SourceAlpha" values="0 0 0 0 0 0 0 0 0 0 0 0 0 0 0 0 0 0 127 0" result="hardAlpha"/><feOffset dx="3" dy="3"/><feGaussianBlur stdDeviation="25"/><feComposite in2="hardAlpha" operator="out"/><feColorMatrix values="0 0 0 0 1 0 0 0 0 1 0 0 0 0 1 0 0 0 0.5 0"/><feBlend in2="BackgroundImageFix" result="effect1_dropShadow"/><feColorMatrix in="SourceAlpha" values="0 0 0 0 0 0 0 0 0 0 0 0 0 0 0 0 0 0 127 0" result="hardAlpha"/><feOffset dx="-1" dy="-1"/><feGaussianBlur stdDeviation="15"/><feComposite in2="hardAlpha" operator="out"/><feColorMatrix values="0 0 0 0 0.705833 0 0 0 0 1 0 0 0 0 1 0 0 0 0.38 0"/><feBlend in2="effect1_dropShadow" result="effect2_dropShadow"/><feBlend in="SourceGraphic" in2="effect2_dropShadow" result="shape"/></filter></defs></svg>