<svg width="71" height="58" fill="none" xmlns="http://www.w3.org/2000/svg"><path fill-rule="evenodd" clip-rule="evenodd" d="M4.614 41.846v9.825c0 1.183.963 2.146 2.145 2.146h57.222a2.148 2.148 0 002.146-2.146V14.886a2.148 2.148 0 00-2.146-2.146H31.883v1.84H63.98c.169 0 .306.136.306.306V51.67c0 .17-.137.307-.306.307H6.759a.307.307 0 01-.306-.307v-9.825h-1.84zm66.126 15.33v-1.717H41.688c-.144.48-.583.83-1.108.83H30.16c-.525 0-.964-.351-1.108-.83H0v1.717c0 .455.37.824.824.824h69.092c.455 0 .824-.37.824-.824z" fill="#fff"/><path d="M25.666 37.179H1.657C.761 37.179 0 36.488 0 35.58V1.598C0 .69.717 0 1.657 0H25.71c.896 0 1.658.69 1.658 1.598v34.026c-.045.82-.806 1.555-1.702 1.555zM1.657 1.295a.3.3 0 00-.313.303v34.026c0 .173.134.302.313.302H25.71c.18 0 .314-.129.314-.302V1.598c-.045-.173-.18-.303-.358-.303H1.657z" fill="#fff"/><path d="M22.173 14.888c-.045-.043-.09-.043-.135-.043.403-.993.359-2.073-.179-2.98-.134-.216-.358-.648-.985-.82-.135-.043-.224-.043-.359-.043-.313 0-.582.086-.85.259-.135.086-.225.173-.27.216-.179.172-.358.302-.492.475-.358.302-.762.69-1.165 1.08l-.044-.044a2.418 2.418 0 00-1.344-.82 2.26 2.26 0 00.268-.605c.359-1.08-.044-2.116-1.03-2.634l-.268-.13c0-.172 0-.345-.09-.518-.18-.475-.582-.777-1.12-.907-.134-.043-.269-.043-.403-.043s-.269 0-.403.043h-.045c-.537.13-.94.432-1.12.864-.09.173-.09.346-.09.561l-.268.13c-.986.561-1.389 1.554-1.075 2.677.045.216.134.389.269.605-.538.13-.986.431-1.344.82 0 0 0 .043-.045.043-.448-.388-.85-.734-1.164-1.08-.18-.172-.359-.301-.538-.474a1.686 1.686 0 00-.269-.216c-.224-.173-.537-.26-.85-.26-.135 0-.225 0-.359.044-.582.13-.851.605-.985.82-.538.907-.583 2.03-.18 2.98-.044 0-.09.043-.134.043-.538.302-.761.82-.717 1.555 0 .215.045.431.135.604.134.432.403.82.716 1.123.09.086.18.173.27.216-.18.388-.18.82.044 1.209.045.086.134.216.18.302.133.173.313.346.492.518.403.303.896.475 1.388.562h.09c.09.215.224.388.403.518.314.259.717.432 1.03.475 0 .302.09.604.269.863.448.562 1.075.95 1.702 1.037.09.172.18.302.314.432 1.209 1.122 1.657 1.295 2.15 1.295.492 0 .94-.173 2.15-1.295.134-.13.224-.26.313-.432a2.95 2.95 0 001.702-1.037c.18-.259.314-.56.269-.863.358-.087.717-.216 1.03-.475.18-.13.314-.303.403-.518h.09c.493-.044.985-.26 1.388-.562.18-.13.359-.302.493-.518.09-.086.134-.216.18-.302.223-.432.223-.864.044-1.21.09-.086.18-.129.269-.215.313-.302.582-.691.716-1.123.045-.216.09-.389.135-.604.18-.778-.045-1.296-.582-1.598zm-8.78-6.261c.045-.043.135-.043.18-.087h.179c.045 0 .134.044.179.087.045.043.045.043.045.086l-.314.475-.269-.475c-.044-.043 0-.086 0-.086zm-.94 1.338l.269-.13c.09-.042.134-.042.134-.042l.045.043.761 1.123.762-1.123.044-.043s.045 0 .135.043c.09.043.179.043.269.13.313.172.671.518.447 1.165-.09.26-.268.605-.582.993l-.045.043h-2.239l-.045-.043c-.313-.388-.493-.734-.582-.993-.045-.648.313-.993.627-1.166zm9.093 6.391c0 .086-.045.216-.045.302a1.77 1.77 0 01-.359.562 1.59 1.59 0 01-1.075.431c-.448.087-.806.087-1.209.087h-.179c-.045 0-.134 0-.134.043-.045.086.044.216.089.26.18.129.448.215.627.345.403.172.851.345 1.21.56.044.044.09.044.044.087-.044.043-.044.087-.09.173-.089.086-.134.173-.223.26a1.5 1.5 0 01-.717.301h-.18c-.357 0-.716-.13-1.074-.302-.224-.086-.448-.216-.627-.302-.045-.043-.18-.13-.269-.13-.045 0-.045 0-.09.043a.259.259 0 00.045.303c.135.216.359.432.538.604.179.216.313.389.493.562-.224.172-.583.259-.896.259h-.18a1.243 1.243 0 01-.85-.518c-.09-.13-.135-.26-.224-.39a.496.496 0 00-.448-.258c-.09 0-.18.043-.27.086-.357.26-.716.648-.716.648.314.259 1.389 1.295 2.06 1.727-.313.389-.671.561-1.03.561-.313 0-.671-.172-1.03-.474-.134-.13-.269-.26-.358-.26-.045 0-.045 0-.09.044-.09.086 0 .431.045.518.09.216.538.863.582.907 0 0-1.03.95-1.254.95-.224 0-1.254-.95-1.254-.95.045-.087.493-.735.582-.907.045-.087.135-.432.045-.518-.045-.044-.045-.044-.09-.044-.134 0-.223.13-.358.26-.358.302-.672.474-1.03.474s-.717-.215-1.03-.56c.672-.476 1.747-1.469 2.06-1.728 0 0-.403-.389-.716-.648-.09-.043-.18-.086-.27-.086a.495.495 0 00-.447.259c-.09.13-.134.259-.224.389-.18.259-.493.475-.806.475h-.18c-.313 0-.671-.087-.895-.26a5.48 5.48 0 00.492-.56c.18-.217.359-.39.538-.605.045-.087.09-.216.045-.303 0-.043-.045-.043-.09-.043-.09 0-.18.087-.269.13-.224.086-.448.216-.672.302-.358.173-.671.302-1.075.302H7.84a1.5 1.5 0 01-.716-.302 1.154 1.154 0 01-.224-.26c-.045-.042-.09-.085-.09-.172-.045-.043 0-.086.045-.086.358-.216.806-.389 1.21-.562.223-.086.447-.172.671-.345.09-.043.18-.173.09-.26h-.359c-.403 0-.761 0-1.164-.042-.403 0-.806-.173-1.075-.432-.18-.173-.314-.346-.359-.562-.044-.086-.044-.215-.09-.302 0-.086-.044-.302.046-.345h.044c.09 0 .18 0 .224.043.135 0 .224 0 .359.043.269 0 .537.043.806.087.269 0 .537.043.806.043h.045c.09 0 .134 0 .224-.087.09-.086.09-.172 0-.216-.403-.216-.806-.388-1.165-.69-.761-.648-1.075-1.857-.537-2.72 0-.044.09-.217.134-.217l.045.043.134.13c.18.13.359.302.493.432.94.863 1.881 1.684 2.822 2.547l.18.173c-.404.346-.449.993-.18 1.425.18.302.538.432.896.432.134 0 .269 0 .403-.086.896-.303.94-1.598.09-1.944-.135-.043-.224-.086-.359-.086-.09 0-.179 0-.134-.086.09-.216.269-.432.403-.648a2.347 2.347 0 00-.582-.086h-.045c-.09 0-.18 0-.269.043a.345.345 0 00-.179.086c-.045.043-.09.087-.134.087-.135-.734.447-1.382 1.209-1.382h.134c.135 0 .314.043.448.043.224 0 .403.043.627.086h.18c.134 0 .313.043.447.043a1.551 1.551 0 00-.09 1.469c.09.216.225.431.314.647.09-.216.224-.431.314-.647.224-.475.224-1.037-.09-1.469.135 0 .314-.043.448-.043h.18c.223 0 .403-.043.627-.086.134 0 .313-.043.447-.043h.135c.761 0 1.344.648 1.21 1.382-.046 0-.09-.087-.135-.087-.045-.043-.135-.043-.18-.086-.089-.043-.178-.043-.268-.043h-.045c-.18 0-.403.043-.582.086.134.216.313.432.403.648.045.13 0 .086-.134.086-.135 0-.224.043-.359.086-.85.346-.806 1.684.09 1.944.134.043.269.086.403.086.358 0 .672-.13.896-.432.268-.432.224-1.08-.18-1.425l.18-.172c.94-.864 1.881-1.728 2.822-2.548.179-.13.358-.303.492-.432l.135-.13s0-.043.045-.043c.044 0 .134.173.134.216.537.864.224 2.073-.538 2.72-.358.303-.761.432-1.164.691-.09.044-.045.13 0 .216a.349.349 0 00.224.087h.045c.268 0 .537-.043.806-.043.269-.044.537-.044.806-.087.134 0 .224 0 .358-.043.045 0 .18-.043.224-.043h.045c.18 0 .134.216.134.302z" fill="#BB6BD9"/><path d="M21.544 31.662H5.778c-.199 0-.363-.113-.363-.219v-.559c0-.105.164-.218.363-.218h15.766c.199 0 .363.113.363.218v.56c0 .105-.164.218-.363.218z" fill="#fff" stroke="#fff"/></svg>