<svg width="123" height="53" fill="none" xmlns="http://www.w3.org/2000/svg"><path d="M30.438 13.712a1 1 0 001.124 1.655l-1.124-1.655zm10.838-2.675l.06.998-.06-.998zm10.622 2.241l-.458.89.458-.89zm7.987 7.356l.848-.53-.848.53zm3.11 10.406l-1 .022 1-.022zm-2.64 10.535l.87.49-.87-.49zm-7.649 7.706l-.498-.867.498.867zm-10.51 2.717l-.016 1 .015-1zm-9.9-3.89a1 1 0 10-1.047 1.704l1.048-1.703zm-.734-32.741a19.49 19.49 0 019.774-3.332l-.12-1.996a21.484 21.484 0 00-10.778 3.673l1.124 1.655zm9.774-3.332a19.482 19.482 0 0110.104 2.132l.916-1.777a21.483 21.483 0 00-11.14-2.351l.12 1.996zm10.104 2.132a19.493 19.493 0 017.597 6.997l1.696-1.06a21.495 21.495 0 00-8.377-7.714l-.916 1.777zm7.597 6.997a19.507 19.507 0 012.958 9.898l2-.045a21.507 21.507 0 00-3.262-10.913l-1.696 1.06zm2.958 9.898a19.507 19.507 0 01-2.511 10.021l1.742.983a21.508 21.508 0 002.769-11.049l-2 .045zm-2.511 10.021a19.495 19.495 0 01-7.276 7.331l.996 1.735a21.495 21.495 0 008.022-8.083l-1.742-.983zm-7.276 7.331a19.483 19.483 0 01-9.997 2.584l-.031 2a21.476 21.476 0 0011.024-2.85l-.996-1.734zm-9.997 2.584a19.483 19.483 0 01-9.914-2.89l-1.048 1.704a21.484 21.484 0 0010.931 3.186l.03-2z" fill="#fff"/><circle cx="41.724" cy="30.927" r="1.793" fill="#fff"/><path d="M42.5 31l14.466-8.142M41.59 29.5v-8.543m.031-5.375v-1.586m0 33.862v-1.586m17.035-15.448H57.07" stroke="#fff" stroke-width="2" stroke-linecap="round"/><path stroke="#fff" stroke-width="2" d="M40 7h4v3h-4z"/><mask id="a" fill="#fff"><rect x="36" y="3" width="12" height="5" rx="1.5"/></mask><rect x="36" y="3" width="12" height="5" rx="1.5" stroke="#fff" stroke-width="4" mask="url(#a)"/><path d="M30.256 24.514H12.145m17.414 13.827H12.145m20.2-6.276H1" stroke="#fff" stroke-width="2" stroke-linecap="round"/><path d="M101.578 12.23l1.675-4.853h2.898v7.397h-2.31v-4.102l-1.49 4.102h-1.532l-1.408-3.883v3.883h-2.31V7.377h2.83l1.647 4.854zm10.418-4.853h2.311v7.397h-2.311v-4.307l-2.03 4.307h-2.318V7.377h2.318v4.293l2.03-4.293zm10.131 7.397h-2.311v-2.742H117.8v2.742h-2.304V7.377h2.304v2.885h2.016V7.377h2.311v7.397zM76.164 15h-3.3V4.492l-3.243.947v-2.5l6.24-2.158h.303V15zm14.16-5.81c0 1.92-.433 3.401-1.299 4.443-.859 1.042-2.073 1.562-3.642 1.562-1.582 0-2.806-.524-3.672-1.572-.866-1.048-1.299-2.526-1.299-4.434V6.592c0-1.92.43-3.402 1.29-4.444.865-1.041 2.086-1.562 3.661-1.562 1.576 0 2.796.524 3.662 1.572.866 1.048 1.3 2.53 1.3 4.444v2.587zm-3.29-3.018c0-1.022-.134-1.784-.401-2.285-.267-.508-.69-.762-1.27-.762-.566 0-.98.234-1.24.703-.254.469-.39 1.179-.41 2.129V9.59c0 1.061.133 1.839.4 2.334.267.488.69.732 1.27.732.56 0 .973-.237 1.24-.713.267-.481.404-1.233.41-2.255V6.171z" fill="#BB6BD9"/></svg>