<svg width="81" height="58" fill="none" xmlns="http://www.w3.org/2000/svg"><path d="M58.205 39h-2.318v-2.222a4.106 4.106 0 01-.683.069c-1.217 0-2.133-.235-2.748-.704-.611-.474-.919-1.183-.923-2.126v-2.414h2.303v2.434c.005.401.1.675.288.82.186.142.546.212 1.08.212.223 0 .45-.02.683-.061v-3.405h2.318V39zm5.4 0c-.082-.15-.155-.371-.219-.663-.424.533-1.016.8-1.777.8-.697 0-1.29-.21-1.778-.63a2.023 2.023 0 01-.73-1.592c0-.802.295-1.408.888-1.818.592-.41 1.454-.616 2.584-.616h.71v-.39c0-.678-.293-1.018-.881-1.018-.547 0-.82.27-.82.807h-2.304c0-.716.303-1.297.909-1.743.61-.447 1.388-.67 2.331-.67.943 0 1.689.23 2.235.69.547.46.828 1.092.841 1.894v3.274c.01.68.114 1.199.315 1.559V39h-2.304zm-1.442-1.504c.287 0 .524-.061.71-.184a1.15 1.15 0 00.41-.417v-1.183h-.67c-.801 0-1.202.36-1.202 1.08 0 .21.07.38.212.513a.775.775 0 00.54.191zm7.84-.136c.324 0 .575-.087.752-.26.178-.178.265-.424.26-.739h2.16c0 .812-.291 1.477-.875 1.996-.578.52-1.326.78-2.242.78-1.075 0-1.923-.337-2.543-1.012-.62-.675-.93-1.609-.93-2.803v-.095c0-.748.137-1.406.41-1.976a3.008 3.008 0 011.197-1.32c.52-.31 1.135-.464 1.846-.464.961 0 1.725.266 2.29.8.565.533.847 1.255.847 2.167h-2.16c0-.383-.093-.677-.28-.882-.187-.205-.438-.308-.752-.308-.597 0-.946.38-1.046 1.142a8.06 8.06 0 00-.048.998c0 .743.089 1.258.267 1.545.177.287.46.43.847.43zM78.316 39c-.082-.15-.155-.371-.219-.663-.424.533-1.016.8-1.777.8-.697 0-1.29-.21-1.777-.63a2.022 2.022 0 01-.732-1.592c0-.802.296-1.408.889-1.818.592-.41 1.453-.616 2.584-.616h.71v-.39c0-.678-.293-1.018-.881-1.018-.547 0-.82.27-.82.807h-2.304c0-.716.303-1.297.909-1.743.61-.447 1.388-.67 2.331-.67.943 0 1.689.23 2.235.69.547.46.828 1.092.841 1.894v3.274c.01.68.114 1.199.315 1.559V39h-2.304zm-1.442-1.504c.287 0 .524-.061.71-.184.192-.123.329-.262.41-.417v-1.183h-.67c-.801 0-1.202.36-1.202 1.08 0 .21.07.38.212.513a.775.775 0 00.54.191z" fill="#BB6BD9"/><path d="M27.836 39H13.412v-3.128l6.644-6.995c1.637-1.867 2.456-3.35 2.456-4.45 0-.892-.194-1.57-.582-2.034-.388-.464-.951-.696-1.69-.696-.728 0-1.32.313-1.774.938-.454.616-.682 1.389-.682 2.318h-4.798c0-1.27.317-2.441.951-3.512a6.66 6.66 0 012.64-2.531c1.127-.607 2.386-.91 3.777-.91 2.234 0 3.952.517 5.154 1.55 1.211 1.033 1.817 2.516 1.817 4.45a6.55 6.55 0 01-.454 2.389c-.303.767-.777 1.578-1.42 2.43-.634.845-1.661 1.977-3.081 3.399l-2.669 3.085h8.135V39zm15.049-8.09h2.1v3.697h-2.1V39H38.1v-4.393h-7.993l-.284-2.93L38.1 18.342V18.3h4.785v12.61zm-8.504 0h3.72v-6.37l-.299.484-3.421 5.886z" fill="#fff"/><path d="M44.986 12l7 1 .5-7-1.918-.59-.285 3.908A28.955 28.955 0 0029 0C13.01 0 0 13.01 0 29s13.01 29 29 29c9.67 0 18.674-4.81 24.087-12.867L51.486 44C46.708 51.111 37.53 56 29 56 14.891 56 1.986 43.108 1.986 29 1.986 14.89 14.89 2 29 2c7.256 0 15.166 3.206 19.986 8.5l-4-.5v2z" fill="#fff"/></svg>