<svg width="59" height="57" fill="none" xmlns="http://www.w3.org/2000/svg"><path d="M55.027 18.48v2.767a2 2 0 01-2 2H4.59a2 2 0 01-2-2v-2.37M3.205 53h51a1 1 0 011 1v.941a1 1 0 01-.999 1l-51 .057a1 1 0 01-1-1V54a1 1 0 011-1zm10.888-.044v-2.562a1 1 0 00-1-1H6.107a1 1 0 00-1 1V53m8.986-29.71v2.563a1 1 0 01-1 1H6.107a1 1 0 01-1-1v-2.606m2.451 25.696V27.304m4.084-.451v21.639m41.002 4.464v-2.563a1 1 0 00-1-1h-6.74a1 1 0 00-1 1V53m8.74-29.71v2.563a1 1 0 01-1 1h-6.74a1 1 0 01-1-1v-2.606m2.384 25.696V27.304m3.972-.451v21.639" stroke="#fff" stroke-width="2"/><path d="M57.014 17.587v.09a1.2 1.2 0 01-1.2 1.2H2.2a1.2 1.2 0 01-1.2-1.2v-.085a1.2 1.2 0 01.611-1.046L28.612 1.334a1.2 1.2 0 011.185.004l26.612 15.207a1.2 1.2 0 01.605 1.042z" stroke="#fff" stroke-width="2"/><path d="M30.042 42.073h.1v-1.137h-3.095v-1.13h3.071c1.328-.007 2.365-.347 3.096-1.037h0c.731-.696 1.091-1.668 1.091-2.903 0-1.212-.372-2.18-1.124-2.894-.747-.718-1.781-1.072-3.089-1.072h-4.271v6.777h-1.716v1.128h1.716v1.13h-1.716v1.139h1.716V45.1h1.226v-3.027h2.995zm2.267-8.243h0c.505.501.762 1.182.762 2.054 0 .902-.263 1.587-.776 2.07-.515.477-1.244.723-2.203.723h-3.045v-5.64h3.17c.9.024 1.593.291 2.092.793z" fill="#BB6BD9" stroke="#BB6BD9" stroke-width=".2"/></svg>