<svg width="62" height="42" fill="none" xmlns="http://www.w3.org/2000/svg"><path d="M1 5a4 4 0 014-4h52a4 4 0 014 4v32a4 4 0 01-4 4H5a4 4 0 01-4-4V5z" stroke="#fff" stroke-width="2"/><path d="M18.352 19.475c1.397-1.545 1.83-3.897 1.094-5.947-.736-2.05-2.494-3.391-4.446-3.391-1.952 0-3.71 1.34-4.446 3.39-.736 2.051-.303 4.403 1.094 5.948C9.993 20.74 9.001 22.853 9 25.115v4.082c0 1.503 1.075 2.722 2.4 2.722h7.2c1.325 0 2.4-1.219 2.4-2.722v-4.082c0-2.262-.994-4.376-2.648-5.64zM12.6 15.591c0-1.503 1.075-2.721 2.4-2.721 1.326 0 2.4 1.218 2.4 2.72 0 1.504-1.074 2.722-2.4 2.722-1.325 0-2.4-1.218-2.4-2.721zm-1.2 13.606v-4.082c0-2.254 1.612-4.082 3.6-4.082s3.6 1.828 3.6 4.082v4.082h-7.2z" fill="#BB6BD9"/><path d="M25.847 15.869h25.428c.468 0 .848.435.848.971 0 .537-.38.972-.848.972H25.847c-.468 0-.847-.435-.847-.972 0-.536.38-.971.847-.971zm11.628 8.025H51.65c.261 0 .473.435.473.971 0 .537-.212.972-.473.972H37.475c-.26 0-.472-.435-.472-.972 0-.536.211-.971.472-.971z" fill="#fff"/></svg>