<svg width="55" height="57" fill="none" xmlns="http://www.w3.org/2000/svg"><path fill-rule="evenodd" clip-rule="evenodd" d="M42.577 11.076C42.505 10.974 31.787.255 31.681.18a.413.413 0 01-.055-.047c-.158-.139-.439-.138-10.817-.128-3.873.004-9.153.01-16.357.01A4.457 4.457 0 000 4.464v48.083A4.457 4.457 0 004.452 57h29.576v-1.78H4.452a2.674 2.674 0 01-2.671-2.672V4.465a2.674 2.674 0 012.671-2.671h25.822v9.795c0 .491.399.89.89.89h9.795V20h1.796c.003-8.574-.017-8.782-.13-8.877l-.008-.006c-.013-.01-.026-.02-.04-.04zm-2.877-.378h-7.645V3.053l7.645 7.645z" fill="#fff"/><path d="M33.303 16H7.877a.848.848 0 000 1.695h25.427a.848.848 0 000-1.695zm-11.627 7H7.5c-.261 0-.473.38-.473.848 0 .468.212.847.473.847h14.175c.26 0 .472-.38.472-.847 0-.468-.211-.848-.472-.848zm-4.844 7H7.345c-.175 0-.317.38-.317.848 0 .468.142.847.317.847h9.487c.175 0 .316-.38.316-.847 0-.468-.141-.848-.316-.848z" fill="#BB6BD9"/><path d="M40.206 29.235h0a9.145 9.145 0 100 12.939h0a9.159 9.159 0 000-12.939zm-.883 12.056a7.896 7.896 0 110-11.173 7.91 7.91 0 010 11.173z" fill="#fff" stroke="#fff" stroke-width=".1"/><path d="M45.344 43.305v.001h0l8.714 8.714a2.833 2.833 0 01-4.007 4.006l-8.713-8.713h0l.036-.035a.573.573 0 010-.813l3.97-3.16zm0 0a.64.64 0 00-.881 0l-.001.001-1.12 1.12-.835-.833a11.773 11.773 0 10-.882.883l.834.834-1.12 1.12 4.005-3.125zm7.868 11.875l-.035-.035a1.587 1.587 0 01-2.241 0l-8.274-8.274 2.241-2.24 8.274 8.271a1.587 1.587 0 010 2.243l.035.035zm0 0a1.636 1.636 0 01-2.311 0l2.311-2.313a1.637 1.637 0 010 2.313zM26.278 43.163a10.55 10.55 0 1114.918-14.918 10.55 10.55 0 01-14.918 14.918z" fill="#fff" stroke="#fff" stroke-width=".1"/></svg>