<svg width="43" height="57" fill="none" xmlns="http://www.w3.org/2000/svg"><path d="M41.958 7.193L21.77.068a1.186 1.186 0 00-.79 0L.791 7.193A1.19 1.19 0 000 8.313v14.25c0 18.44 2.735 25.18 20.84 34.31a1.19 1.19 0 001.07 0c18.105-9.13 20.84-15.87 20.84-34.31V8.313a1.19 1.19 0 00-.792-1.12zm-1.584 15.37c0 17.662-2.252 23.38-19 31.918-16.747-8.538-19-14.256-19-31.918V9.153l19-6.706 19 6.707v13.409z" fill="#fff"/><path d="M28.5 33.25h4.75a1.187 1.187 0 100-2.375h-3.563v-8.312a1.187 1.187 0 10-2.375 0v9.5c0 .656.532 1.188 1.188 1.188zm-16.625-9.5h2.375a1.187 1.187 0 100-2.375h-2.375a3.566 3.566 0 00-3.563 3.563 3.566 3.566 0 003.563 3.562 1.188 1.188 0 010 2.375H9.5a1.187 1.187 0 100 2.376h2.375a3.566 3.566 0 003.562-3.563 3.566 3.566 0 00-3.562-3.562 1.188 1.188 0 010-2.376zm5.938 1.188a3.566 3.566 0 003.562 3.562 1.188 1.188 0 010 2.375H19a1.187 1.187 0 100 2.376h2.375a3.566 3.566 0 003.562-3.563 3.566 3.566 0 00-3.562-3.562 1.188 1.188 0 010-2.376h2.375a1.187 1.187 0 100-2.375h-2.375a3.566 3.566 0 00-3.563 3.563z" fill="#BB6BD9"/></svg>