<svg width="20" height="20" fill="none" xmlns="http://www.w3.org/2000/svg"><g clip-path="url(#clip0)" fill="#BB6BD9"><path d="M17.422 1.563h-1.797V.625a.625.625 0 00-1.25 0v.938h-8.75V.625a.625.625 0 00-1.25 0v.938H2.578A2.581 2.581 0 000 4.141v13.281A2.581 2.581 0 002.578 20h14.844A2.581 2.581 0 0020 17.422V4.142a2.581 2.581 0 00-2.578-2.579zM2.578 2.813h1.797v.625a.625.625 0 001.25 0v-.625h8.75v.625a.625.625 0 001.25 0v-.625h1.797a1.33 1.33 0 011.328 1.328v1.484H1.25V4.141a1.33 1.33 0 011.328-1.328zm14.844 15.938H2.578a1.33 1.33 0 01-1.328-1.329V6.875h17.5v10.547a1.33 1.33 0 01-1.328 1.328z"/><path d="M13.755 8.934l-5.203 4.46-.964-1.24a.685.685 0 00-.201-.174.847.847 0 00-.812-.002.687.687 0 00-.202.173.58.58 0 00-.11.226.538.538 0 00.001.244c.02.081.057.158.11.226l1.459 1.875c.06.077.138.142.23.19A.814.814 0 008.44 15c.096 0 .19-.016.28-.047a.746.746 0 00.236-.136l5.832-5A.584.584 0 0015 9.376a.584.584 0 00-.213-.442.795.795 0 00-.516-.184.795.795 0 00-.516.184z"/></g><defs><clipPath id="clip0"><path fill="#fff" d="M0 0h20v20H0z"/></clipPath></defs></svg>