<svg width="20" height="22" fill="none" xmlns="http://www.w3.org/2000/svg"><path d="M2.07 2.114h0C1.322 2.88.95 3.85.95 5.019v.935c0 1.239.381 2.24 1.148 3 .765.757 1.722 1.135 2.867 1.135 1.154 0 2.102-.383 2.84-1.15.746-.776 1.12-1.74 1.12-2.892V5.1c0-1.221-.378-2.218-1.134-2.985C7.044 1.338 6.091.95 4.937.95c-1.154 0-2.112.388-2.868 1.164zm4.722 5.943h0c-.45.522-1.057.784-1.827.784-.79 0-1.415-.262-1.883-.784-.46-.524-.692-1.192-.692-2.01V5.1c0-.88.237-1.58.705-2.102.478-.523 1.09-.785 1.842-.785.76 0 1.373.266 1.841.797h0c.47.524.706 1.193.706 2.01v.975c0 .845-.232 1.53-.692 2.063zm5.403 4.991h0c-.747.767-1.12 1.737-1.12 2.906v.974c0 1.222.378 2.219 1.134 2.986h0c.766.758 1.723 1.136 2.868 1.136 1.145 0 2.093-.383 2.84-1.15.756-.766 1.133-1.736 1.133-2.905v-.948c0-1.24-.381-2.24-1.147-3-.756-.766-1.709-1.149-2.854-1.149s-2.098.383-2.854 1.15zm4.723 5.97h0c-.45.522-1.062.784-1.841.784-.789 0-1.415-.262-1.883-.784-.46-.523-.692-1.196-.692-2.023v-.988c0-.872.237-1.562.705-2.076.469-.513 1.081-.771 1.842-.771.78 0 1.396.258 1.855.77h0l.001.002c.469.505.705 1.177.705 2.022v.974c0 .863-.232 1.558-.692 2.09zm-11.455.129l.042.026.027-.041 9.822-15.194.027-.043-.043-.027-1.036-.64-.042-.026-.027.04-9.821 15.194-.028.043.043.027 1.036.641z" fill="#BB6BD9" stroke="#BB6BD9" stroke-width=".1"/></svg>